#N canvas 62 205 736 450 12;
#X declare -path Fraise -path AutoPreset -path stuff;
#X declare -path zexy -lib zexy -path iemlib -lib iemlib;
#X declare -path emulator;
#X obj 11 39 pied/pied 1;
#X obj 10 10 declare -path Fraise -path AutoPreset -path stuff;
#X obj 177 54 bng 20 250 50 0 RELOAD_ALL RELOAD_ALL RELOAD_ALL 0 -10 0 12 #ff8300 #000000 #000000;
#X obj 11 269 preset_master feu_grille;
#N canvas 145 132 1219 872 feu_grille 1;
#X obj 21 35 lamp feu_grille pixels;
#X obj 21 401 fruit/send2 feucamp;
#X text 74 354 group0 command;
#X obj 5 484 rem lampgroup 0 0 1 2 3 4 5 6 7 8 9 10 11 12 13 14 15;
#X obj 161 637 print;
#X obj 21 378 list prepend 102 0;
#X obj 336 31 noise~;
#X obj 336 178 *~, f 12;
#X obj 418 50 noise~;
#X obj 418 75 lop~ 4;
#X obj 417 151 +~ 1;
#X obj 387 347 *~;
#X obj 387 372 dac~;
#X obj 472 345 hsl 170 20 0 1 0 0 empty empty empty -2 -10 0 12 #fcfcfc #000000 #000000 0 1;
#X obj 469 370 pow 2;
#X obj 469 420 line~;
#X obj 336 89 lop~ 150;
#X floatatom 417 22 5 0 0 0 - - - 0;
#X obj 417 125 *~ 30;
#X obj 336 123 bp~ 250 2;
#X obj 337 59 lop~ 150;
#X obj 722 24 noise~;
#X obj 667 26 sig~ 1;
#X obj 668 74 /~;
#X obj 722 72 *~ 1000;
#X obj 549 140 *~;
#X obj 566 111 noise~;
#X obj 667 204 *~ 10;
#X obj 581 207 *~ 10;
#X obj 758 206 *~ 10;
#X obj 1109 25 noise~;
#X obj 1054 27 sig~ 1;
#X obj 1055 75 /~;
#X obj 1109 73 *~ 1000;
#X obj 855 144 *~;
#X obj 895 142 noise~;
#X obj 973 208 *~ 10;
#X obj 887 211 *~ 10;
#X obj 1064 210 *~ 10;
#X obj 855 250 *~ 0.3;
#X obj 549 246 *~ 0.3;
#X obj 730 369 metro 10;
#X obj 730 394 random 1000;
#X obj 730 419 sel 0;
#X obj 730 334 tgl 20 0 empty empty empty 0 -10 0 12 #fcfcfc #000000 #000000 0 1;
#X obj 823 393 random 1000;
#X obj 823 418 sel 0;
#X obj 672 485 random 1000;
#X obj 672 510 / 1000;
#X obj 758 484 random 1000;
#X obj 758 509 / 1000;
#X obj 672 461 t b b;
#X obj 672 535 pack f f;
#X msg 672 560 \$1 \, 0 \$2;
#X obj 672 585 line~;
#X obj 678 426 bng 20 250 50 0 empty empty empty 0 -10 0 12 #fcfcfc #000000 #000000;
#X floatatom 826 333 5 0 0 0 - - - 0;
#X obj 859 475 random 1000;
#X obj 859 500 / 1000;
#X obj 945 474 random 1000;
#X obj 945 499 / 1000;
#X obj 859 451 t b b;
#X obj 859 525 pack f f;
#X msg 859 550 \$1 \, 0 \$2;
#X obj 859 575 line~;
#X obj 758 534 * 0.1;
#X obj 945 524 * 0.1;
#X msg 486 540 103 0 0 0;
#X obj 336 151 *~ 2;
#X obj 973 184 bp~ 3600 5;
#X obj 667 180 bp~ 3200 5;
#X obj 580 183 bp~ 810 5;
#X obj 887 187 bp~ 710 5;
#X obj 1061 185 bp~ 6700 10;
#X obj 758 182 bp~ 5700 10;
#X obj 1109 50 lop~ 1;
#X obj 722 49 lop~ 1;
#X obj 667 99 clip~ -0.02 0.02;
#X obj 1053 99 clip~ -0.02 0.02;
#X obj 667 127 hip~ 5000;
#X obj 1054 128 hip~ 5000;
#X obj 469 395 pack f 50;
#X obj 249 272 tgl 20 0 empty empty empty 0 -10 0 12 #fcfcfc #000000 #000000 0 1;
#X obj 247 360 sel 0 1;
#X obj 249 331 random 200;
#X msg 244 388 10 3 1;
#X obj 245 417 s tofruit;
#X msg 303 388 10 3 2;
#X obj 490 81 lop~ 4;
#X floatatom 470 133 5 0 0 0 - - - 0;
#X floatatom 674 266 5 0 0 0 - - - 0;
#X floatatom 724 271 5 0 0 0 - - - 0;
#X floatatom 618 273 5 0 0 0 - - - 0;
#X floatatom 778 265 5 0 0 0 - - - 0;
#X floatatom 817 277 5 0 0 0 - - - 0;
#X obj 969 421 bng 20 250 50 0 empty empty empty 0 -10 0 12 #fcfcfc #000000 #000000;
#X obj 162 606 spigot;
#X obj 198 575 tgl 20 0 empty empty empty 0 -10 0 12 #fcfcfc #000000 #000000 0 1;
#X listbox 105 684 53 0 0 0 - - - 0;
#X obj 248 303 metro 5;
#X floatatom 321 291 5 0 0 0 - - - 0;
#X obj 604 624 hsl 170 20 0 255 0 0 empty empty empty -2 -10 0 12 #fcfcfc #000000 #000000 0 1;
#X msg 534 684 256 \$1;
#X obj 534 709 -;
#X obj 601 733 *;
#X obj 633 732 t b f;
#X obj 794 652 hsl 170 20 0 255 0 0 empty empty empty -2 -10 0 12 #fcfcfc #000000 #000000 0 1;
#X msg 791 677 256 \$1;
#X obj 791 702 -;
#X floatatom 495 786 9 0 0 0 - - - 0;
#X floatatom 604 879 10 0 0 0 - - - 0;
#X obj 712 692 max 1;
#X obj 601 831 /;
#X obj 601 758 / 256;
#X floatatom 527 838 5 0 0 0 - - - 0;
#X obj 601 806 list prepend 10000;
#X obj 601 782 clip 1 100;
#X obj 601 662 clip 1 50;
#X connect 0 0 5 0;
#X connect 5 0 1 0;
#X connect 5 0 96 0;
#X connect 5 0 98 0;
#X connect 6 0 20 0;
#X connect 7 0 11 0;
#X connect 8 0 9 0;
#X connect 9 0 18 0;
#X connect 10 0 7 1;
#X connect 11 0 12 0;
#X connect 11 0 12 1;
#X connect 13 0 14 0;
#X connect 14 0 81 0;
#X connect 15 0 11 1;
#X connect 16 0 19 0;
#X connect 17 0 19 1;
#X connect 18 0 10 0;
#X connect 19 0 68 0;
#X connect 20 0 16 0;
#X connect 21 0 76 0;
#X connect 22 0 23 0;
#X connect 23 0 77 0;
#X connect 24 0 23 1;
#X connect 25 0 40 0;
#X connect 25 0 70 0;
#X connect 25 0 71 0;
#X connect 25 0 74 0;
#X connect 26 0 25 1;
#X connect 27 0 40 0;
#X connect 28 0 40 0;
#X connect 29 0 40 0;
#X connect 30 0 75 0;
#X connect 31 0 32 0;
#X connect 32 0 78 0;
#X connect 33 0 32 1;
#X connect 34 0 39 0;
#X connect 34 0 69 0;
#X connect 34 0 72 0;
#X connect 34 0 73 0;
#X connect 35 0 34 1;
#X connect 36 0 39 0;
#X connect 37 0 39 0;
#X connect 38 0 39 0;
#X connect 39 0 11 0;
#X connect 40 0 11 0;
#X connect 41 0 42 0;
#X connect 41 0 45 0;
#X connect 42 0 43 0;
#X connect 43 0 51 0;
#X connect 43 0 67 0;
#X connect 44 0 41 0;
#X connect 45 0 46 0;
#X connect 46 0 61 0;
#X connect 46 0 67 0;
#X connect 47 0 48 0;
#X connect 48 0 52 0;
#X connect 49 0 50 0;
#X connect 50 0 65 0;
#X connect 51 0 47 0;
#X connect 51 1 49 0;
#X connect 52 0 53 0;
#X connect 53 0 54 0;
#X connect 54 0 25 0;
#X connect 55 0 51 0;
#X connect 56 0 42 1;
#X connect 56 0 45 1;
#X connect 57 0 58 0;
#X connect 58 0 62 0;
#X connect 59 0 60 0;
#X connect 60 0 66 0;
#X connect 61 0 57 0;
#X connect 61 1 59 0;
#X connect 62 0 63 0;
#X connect 63 0 64 0;
#X connect 64 0 34 0;
#X connect 65 0 52 1;
#X connect 66 0 62 1;
#X connect 67 0 1 0;
#X connect 68 0 7 0;
#X connect 69 0 36 0;
#X connect 70 0 27 0;
#X connect 71 0 28 0;
#X connect 72 0 37 0;
#X connect 73 0 38 0;
#X connect 74 0 29 0;
#X connect 75 0 33 0;
#X connect 76 0 24 0;
#X connect 77 0 79 0;
#X connect 78 0 80 0;
#X connect 79 0 74 0;
#X connect 79 0 71 0;
#X connect 79 0 70 0;
#X connect 80 0 73 0;
#X connect 80 0 69 0;
#X connect 80 0 72 0;
#X connect 81 0 15 0;
#X connect 82 0 99 0;
#X connect 83 0 85 0;
#X connect 83 0 67 0;
#X connect 83 1 87 0;
#X connect 83 1 67 0;
#X connect 84 0 83 0;
#X connect 85 0 86 0;
#X connect 87 0 86 0;
#X connect 89 0 18 1;
#X connect 90 0 71 1;
#X connect 91 0 71 2;
#X connect 92 0 28 1;
#X connect 93 0 27 1;
#X connect 94 0 29 1;
#X connect 95 0 61 0;
#X connect 96 0 4 0;
#X connect 97 0 96 1;
#X connect 99 0 84 0;
#X connect 100 0 84 1;
#X connect 101 0 117 0;
#X connect 102 0 103 0;
#X connect 104 0 109 0;
#X connect 104 0 113 0;
#X connect 105 0 104 0;
#X connect 105 1 104 1;
#X connect 106 0 111 0;
#X connect 107 0 108 0;
#X connect 108 0 105 0;
#X connect 111 0 105 0;
#X connect 112 0 110 0;
#X connect 112 0 84 1;
#X connect 113 0 116 0;
#X connect 115 0 112 0;
#X connect 116 0 114 0;
#X connect 116 0 115 0;
#X connect 117 0 104 0;
#X restore 10 351 pd feu_grille;
#X obj 243 206 fruit/receive feucamp;
#X obj 267 44 hsl 170 30 0 1 0 1 main-fadeToScene-time-snd main-fadeToScene-time-rcv fade\ time:\ 1.7s 5 15 0 14 #faff00 #ff0400 #000000 6147 1;
#X obj 267 78 hsl 170 30 0 1 0 1 main-master-snd main-master-rcv master:100% 5 15 0 14 #ff8300 #ff0400 #000000 16900 1;
#N canvas 0 0 678 398 stuff 0;
#X obj 26 28 r main-fadeToScene-time-snd;
#X obj 82 115 s main-fadeToScene-time;
#X obj 26 114 / 100;
#X obj 26 139 i;
#X obj 26 192 / 10;
#X obj 26 166 change;
#X obj 26 242 s main-fadeToScene-time-rcv;
#X msg 26 216 label fade\\\ time:\\\ \$1s;
#X obj 26 88 * 10000;
#X obj 26 61 pow 1.7;
#X obj 290 113 r main-master-snd;
#X obj 290 138 * 100;
#X obj 290 163 i;
#X obj 290 188 change;
#X msg 290 213 label master:\$1%;
#X obj 290 238 s main-master-rcv;
#X obj 350 163 s main-master;
#X obj 336 55 loadbang;
#X msg 336 80 1;
#X obj 357 291 r main-master;
#X obj 315 328 *;
#X obj 315 353 s audio-master;
#X obj 345 329 t b f;
#X obj 387 327 r audio-master-snd;
#X obj 418 238 s audio-master-rcv;
#X obj 276 18 declare -path zexy -lib zexy -path iemlib -lib iemlib;
#X connect 0 0 9 0;
#X connect 2 0 3 0;
#X connect 3 0 5 0;
#X connect 4 0 7 0;
#X connect 5 0 4 0;
#X connect 7 0 6 0;
#X connect 8 0 2 0;
#X connect 8 0 1 0;
#X connect 9 0 8 0;
#X connect 10 0 11 0;
#X connect 10 0 20 0;
#X connect 11 0 12 0;
#X connect 12 0 13 0;
#X connect 13 0 14 0;
#X connect 14 0 15 0;
#X connect 17 0 18 0;
#X connect 18 0 15 0;
#X connect 18 0 24 0;
#X connect 18 0 16 0;
#X connect 20 0 21 0;
#X connect 22 0 20 0;
#X connect 22 1 20 1;
#X connect 23 0 22 0;
#X restore 391 7 pd stuff;
#X obj 426 259 fruit/send2 feucamp;
#N canvas 69 552 1698 422 emulator 1;
#X obj 43 35 declare -path emulator;
#X obj 59 206 emulator;
#X obj 59 243 *~;
#X obj 59 268 dac~;
#X obj 145 259 hsl 170 20 0 1 0 1 empty empty empty -2 -10 0 12 #fcfcfc #000000 #000000 0 1;
#X obj 142 284 pow 2;
#X obj 142 334 line~;
#X msg 122 137 buzz;
#X obj 142 309 pack f 50;
#X msg 215 156 wind_vol \$1;
#X floatatom 215 126 12 0 0 0 - - - 0;
#X obj 218 98 hsl 170 20 0 50000 0 0 empty empty empty -2 -10 0 12 #fcfcfc #000000 #000000 0 1;
#X floatatom 344 125 12 0 0 0 - - - 0;
#X obj 337 62 hsl 170 20 0 500000 0 0 empty empty empty -2 -10 0 12 #fcfcfc #000000 #000000 0 1;
#X floatatom 357 186 12 0 0 0 - - - 0;
#X msg 344 155 wind_vn_vol1 \$1;
#X floatatom 564 130 12 0 0 0 - - - 0;
#X obj 557 67 hsl 170 20 0 500000 0 0 empty empty empty -2 -10 0 12 #fcfcfc #000000 #000000 0 1;
#X msg 564 160 wind_vn_vol2 \$1;
#X msg 357 216 wind_vn_lp1 \$1;
#X floatatom 588 191 12 0 0 0 - - - 0;
#X msg 588 221 wind_vn_lp2 \$1;
#X obj 520 254 t a;
#X floatatom 609 253 5 0 0 0 - - - 0;
#X msg 609 277 \$1 2 2;
#X msg 609 304 wind_bp \$1 \$2 \$3;
#X msg 825 184 crackle_vol \$1;
#X obj 57 161 r to_emulator;
#X obj 480 333 s to_emulator;
#X obj 800 293 s to_emulator;
#X floatatom 818 123 5 0 0 0 - - - 0;
#X obj 820 94 * 100;
#X floatatom 822 56 5 0 0 0 - - - 0;
#X floatatom 949 154 5 0 0 0 - - - 0;
#X msg 947 184 crackle_rnd \$1;
#X obj 951 128 * 100;
#X floatatom 953 90 5 0 0 0 - - - 0;
#X msg 787 11 crack2 0 0 5;
#X msg 675 93 crack1 0 0 0;
#X msg 1073 185 crack1_bp 1 \$1 \$2 \$3;
#X obj 1073 149 pack f 10 1;
#X floatatom 1100 83 5 0 0 0 - - - 0;
#X floatatom 1147 82 5 0 0 0 - - - 0;
#X obj 1103 118 t b f;
#X obj 1147 118 t b f;
#X floatatom 1056 85 5 0 0 0 - - - 0;
#X obj 1074 223 tgl 20 0 empty empty empty 0 -10 0 12 #fcfcfc #000000 #000000 0 1;
#X obj 1240 150 pack f 10 1;
#X floatatom 1267 84 5 0 0 0 - - - 0;
#X floatatom 1314 83 5 0 0 0 - - - 0;
#X obj 1270 119 t b f;
#X obj 1314 119 t b f;
#X floatatom 1223 86 5 0 0 0 - - - 0;
#X obj 1223 60 mtof;
#X floatatom 1235 33 5 0 0 0 - - - 0;
#X msg 1240 186 crack1_bp 2 \$1 \$2 \$3;
#X obj 1166 259 tgl 20 0 empty empty empty 0 -10 0 12 #fcfcfc #000000 #000000 0 1;
#X obj 1165 289 metro 750;
#X obj 1402 151 pack f 10 1;
#X floatatom 1429 85 5 0 0 0 - - - 0;
#X floatatom 1476 84 5 0 0 0 - - - 0;
#X obj 1432 120 t b f;
#X obj 1476 120 t b f;
#X floatatom 1385 87 5 0 0 0 - - - 0;
#X obj 1385 61 mtof;
#X floatatom 1397 34 5 0 0 0 - - - 0;
#X msg 1402 187 crack1_bp 3 \$1 \$2 \$3;
#X obj 1290 249 b;
#X msg 1058 18 150 5 30;
#X obj 1058 43 unpack f f f;
#X obj 1281 45 unpack f f f;
#X obj 1449 48 unpack f f f;
#X msg 1281 20 150 120 10;
#X msg 1449 23 7500 6 7;
#X obj 1072 311 sel 0 1;
#X obj 1073 253 metro 10;
#X obj 1291 273 random 600;
#X msg 1073 345 crack1 1 0 50;
#X msg 1186 343 crack1 2 0 50;
#X obj 1290 298 + 500;
#X obj 1074 282 random 100;
#X obj 1433 248 tgl 20 0 empty empty empty 0 -10 0 12 #fcfcfc #000000 #000000 0 1;
#X obj 1431 336 sel 0 1;
#X obj 1432 278 metro 10;
#X obj 1433 307 random 200;
#X msg 1428 364 ck1;
#X msg 1466 365 ck2;
#X obj 1426 393 s to_emulator;
#X obj 1350 334 tgl 20 0 empty empty empty 0 -10 0 12 #fcfcfc #000000 #000000 0 1;
#X obj 1349 364 metro 750;
#X msg 150 207;
#X connect 1 0 2 0;
#X connect 2 0 3 0;
#X connect 2 0 3 1;
#X connect 4 0 5 0;
#X connect 5 0 8 0;
#X connect 6 0 2 1;
#X connect 7 0 1 0;
#X connect 8 0 6 0;
#X connect 9 0 22 0;
#X connect 10 0 9 0;
#X connect 11 0 10 0;
#X connect 12 0 15 0;
#X connect 13 0 12 0;
#X connect 14 0 19 0;
#X connect 15 0 22 0;
#X connect 16 0 18 0;
#X connect 17 0 16 0;
#X connect 18 0 22 0;
#X connect 19 0 22 0;
#X connect 20 0 21 0;
#X connect 21 0 22 0;
#X connect 22 0 28 0;
#X connect 23 0 24 0;
#X connect 24 0 25 0;
#X connect 25 0 22 0;
#X connect 26 0 29 0;
#X connect 27 0 1 0;
#X connect 30 0 26 0;
#X connect 31 0 30 0;
#X connect 32 0 31 0;
#X connect 33 0 34 0;
#X connect 34 0 29 0;
#X connect 35 0 33 0;
#X connect 36 0 35 0;
#X connect 37 0 29 0;
#X connect 38 0 29 0;
#X connect 39 0 29 0;
#X connect 40 0 39 0;
#X connect 41 0 43 0;
#X connect 42 0 44 0;
#X connect 43 0 40 0;
#X connect 43 1 40 1;
#X connect 44 0 40 0;
#X connect 44 1 40 2;
#X connect 45 0 40 0;
#X connect 46 0 75 0;
#X connect 47 0 55 0;
#X connect 48 0 50 0;
#X connect 49 0 51 0;
#X connect 50 0 47 0;
#X connect 50 1 47 1;
#X connect 51 0 47 0;
#X connect 51 1 47 2;
#X connect 52 0 47 0;
#X connect 53 0 52 0;
#X connect 54 0 53 0;
#X connect 55 0 29 0;
#X connect 56 0 57 0;
#X connect 57 0 77 0;
#X connect 58 0 66 0;
#X connect 59 0 61 0;
#X connect 60 0 62 0;
#X connect 61 0 58 0;
#X connect 61 1 58 1;
#X connect 62 0 58 0;
#X connect 62 1 58 2;
#X connect 63 0 58 0;
#X connect 64 0 63 0;
#X connect 65 0 64 0;
#X connect 66 0 29 0;
#X connect 67 0 76 0;
#X connect 68 0 69 0;
#X connect 69 0 45 0;
#X connect 69 1 41 0;
#X connect 69 2 42 0;
#X connect 70 0 52 0;
#X connect 70 1 48 0;
#X connect 70 2 49 0;
#X connect 71 0 63 0;
#X connect 71 1 59 0;
#X connect 71 2 60 0;
#X connect 72 0 70 0;
#X connect 73 0 71 0;
#X connect 74 0 77 0;
#X connect 75 0 80 0;
#X connect 76 0 79 0;
#X connect 77 0 29 0;
#X connect 77 0 67 0;
#X connect 78 0 29 0;
#X connect 79 0 52 0;
#X connect 80 0 74 0;
#X connect 81 0 83 0;
#X connect 82 0 85 0;
#X connect 82 1 86 0;
#X connect 83 0 84 0;
#X connect 84 0 82 0;
#X connect 85 0 87 0;
#X connect 86 0 87 0;
#X connect 88 0 89 0;
#X connect 89 0 85 0;
#X restore 448 300 pd emulator;
#X msg 474 30 \; pd dsp 1;
#X obj 474 6 loadbang;
#X msg 426 233 10 1;
#X obj 473 230 r tofruit;
#X text 423 213 cpu;
#X obj 610 309 s tofruit;
#X obj 613 253 hsl 80 20 0 255 0 0 empty empty volume -2 -10 0 12 #fcfcfc #000000 #000000 0 1;
#X msg 673 283 10 6;
#X msg 610 283 10 5 \$1;
#X obj 11 114 fruit/fruit 1 wifi 0 fw_wifi;
#X obj 11 197 fruit/fruit 1 feucamp 1 fw_feucamp;
#X obj 511 127 wifi_ctl wifi;
#X obj 243 231 print feucamp;
#X obj 221 120 fruit/receive wifi;
#X obj 221 145 print wifi;
#X connect 5 0 23 0;
#X connect 12 0 11 0;
#X connect 13 0 9 0;
#X connect 14 0 9 0;
#X connect 17 0 19 0;
#X connect 18 0 16 0;
#X connect 19 0 16 0;
#X connect 24 0 25 0;
