#N canvas 107 673 691 322 12;
#X msg 144 168 EHello;
#X msg 203 167 S;
#X msg 243 168 L\$1;
#X obj 243 136 tgl 20 0 empty empty empty 0 -10 0 12 #fcfcfc #000000 #000000 0 1;
#X obj 283 138 tgl 20 0 empty empty empty 0 -10 0 12 #fcfcfc #000000 #000000 0 1;
#X msg 283 170 l\$1;
#X msg 317 125 e;
#X text 326 101 pages;
#X text 343 124 empty str;
#X msg 328 154 n;
#X text 355 155 normal;
#X msg 347 177 z;
#X text 372 175 zipped empty;
#X obj 317 250 t a;
#N canvas 166 101 1300 877 flash_html 0;
#X msg 148 165 115 32 116 104 101 32 100 101 118 105 99 101 32 98 108;
#X obj 102 216 fudiparse;
#X listbox 102 273 62 0 0 0 - - - 0;
#X obj 102 245 list;
#X msg 466 85 100 l 100;
#X text 350 57 read;
#X text 467 67 set_size;
#X obj 102 108 route 100;
#X msg 345 81 110 i 0 c 50;
#X obj 698 447 file handle;
#X listbox 867 619 47 0 0 0 - - - 0;
#X obj 803 353 file size;
#X floatatom 847 410 5 0 0 0 - - - 0;
#X obj 851 665 bng 20 250 50 0 empty empty empty 0 -10 0 12 #fcfcfc #000000 #000000;
#X obj 698 552 list length;
#X floatatom 639 578 5 0 0 0 - - - 0;
#X msg 739 389 seek 0;
#X obj 698 585 +;
#X obj 734 586 f;
#X msg 783 552 0;
#X floatatom 622 633 5 0 0 0 - - - 0;
#X obj 698 610 moses, f 16;
#X obj 666 324 t a a, f 20;
#X obj 799 642 bng 20 250 50 0 empty empty empty 0 -10 0 12 #fcfcfc #000000 #000000;
#X msg 666 352 close \, open \$1 r;
#X obj 666 377 t b a;
#X msg 634 456 20;
#X obj 698 636 b;
#X obj 807 585 - 1;
#X obj 880 576 list prepend;
#X obj 961 498 list length;
#X obj 698 472 t a a a, f 38;
#X obj 961 523 pack f f;
#X text 1123 555 set_size;
#X msg 1122 573 100 l \$1;
#X msg 961 549 101 i \$2 c \$1;
#X msg 762 735 102;
#X text 768 717 save;
#X obj 666 233 del 200;
#X listbox 68 811 156 0 0 0 - - - 0;
#X obj 901 267 list;
#X obj 804 263 ggee/shell;
#X obj 666 258 symbol, f 8;
#X obj 666 11 inlet;
#X obj 630 754 outlet size;
#X obj 630 699 pack f f;
#X msg 630 724 \$1 / \$2;
#X msg 557 84 111;
#X text 555 63 get size;
#X obj 762 689 spigot 1;
#X obj 829 643 tgl 20 0 empty empty empty 0 -10 0 12 #fcfcfc #000000 #000000 0 1;
#X obj 1045 17 inlet dontsave;
#X obj 1045 44 == 0;
#X msg 1013 696 f;
#X text 1038 693 flash html;
#X obj 749 659 t b b;
#X msg 804 236 gzip --best -c \$1 > \$2;
#X obj 666 208 t b a, f 14;
#X msg 721 235 symbol \$2;
#X listbox 617 296 20 0 0 0 - - - 0;
#X obj 634 433 del 3;
#X obj 918 722 fruit/send2 \$1;
#X obj 345 111 fruit/send2 \$1;
#X obj 102 83 fruit/receive \$1;
#X obj 666 96 file patchpath;
#X msg 666 150 list \$1/webctl.html \$1/webctl.html.gz;
#X connect 0 0 1 0;
#X connect 1 0 3 0;
#X connect 3 0 2 0;
#X connect 4 0 62 0;
#X connect 7 0 1 0;
#X connect 8 0 62 0;
#X connect 9 0 31 0;
#X connect 10 0 13 0;
#X connect 11 0 12 0;
#X connect 11 0 19 0;
#X connect 11 0 28 0;
#X connect 11 0 34 0;
#X connect 11 0 45 1;
#X connect 14 0 15 0;
#X connect 14 0 17 0;
#X connect 16 0 9 0;
#X connect 17 0 18 0;
#X connect 17 0 20 0;
#X connect 17 0 21 0;
#X connect 17 0 45 0;
#X connect 18 0 17 1;
#X connect 18 0 32 1;
#X connect 19 0 18 0;
#X connect 21 0 27 0;
#X connect 21 1 23 0;
#X connect 21 1 55 0;
#X connect 22 0 24 0;
#X connect 22 1 11 0;
#X connect 24 0 25 0;
#X connect 25 0 60 0;
#X connect 25 1 9 0;
#X connect 26 0 9 0;
#X connect 27 0 60 0;
#X connect 28 0 21 1;
#X connect 29 0 10 0;
#X connect 29 0 61 0;
#X connect 30 0 32 0;
#X connect 31 0 14 0;
#X connect 31 1 29 0;
#X connect 31 2 30 0;
#X connect 32 0 35 0;
#X connect 34 0 61 0;
#X connect 35 0 29 1;
#X connect 36 0 61 0;
#X connect 38 0 42 0;
#X connect 40 0 39 0;
#X connect 42 0 22 0;
#X connect 42 0 59 0;
#X connect 43 0 64 0;
#X connect 45 0 46 0;
#X connect 46 0 44 0;
#X connect 47 0 62 0;
#X connect 49 0 36 0;
#X connect 50 0 49 1;
#X connect 51 0 52 0;
#X connect 52 0 50 0;
#X connect 53 0 61 1;
#X connect 55 0 53 0;
#X connect 55 1 49 0;
#X connect 56 0 40 0;
#X connect 56 0 41 0;
#X connect 57 0 38 0;
#X connect 57 1 56 0;
#X connect 57 1 58 0;
#X connect 58 0 42 1;
#X connect 60 0 26 0;
#X connect 63 0 7 0;
#X connect 64 0 65 0;
#X connect 65 0 57 0;
#X restore 35 69 pd flash_html;
#X f 19;
#X msg 355 204 f;
#X text 380 201 flash html;
#X obj 35 41 bng 20 250 50 0 empty empty update_web_page 0 -10 0 12 #ff0400 #000000 #000000;
#X listbox 35 97 20 0 0 0 - - - 0;
#X obj 165 42 tgl 20 0 empty empty don't\ save 0 -10 0 12 #fcfcfc #000000 #000000 0 1;
#X obj 491 145 route volume;
#X obj 494 170 hsl 170 20 0 255 0 0 empty empty empty -2 -10 0 12 #fcfcfc #000000 #000000 0 1;
#X floatatom 491 195 5 0 0 0 - - - 0;
#X listbox 24 289 20 0 0 0 - - - 0;
#X obj 24 260 r Fraise-fruit0-rcv;
#N canvas 68 318 1330 360 settings 1;
#X obj 141 72 symbol;
#X obj 141 97 list fromsymbol;
#X obj 141 122 list prepend 10 1;
#X listbox 64 297 20 0 0 0 - - - 0;
#X msg 40 42 10 200 \$1;
#X listbox 213 297 20 0 0 0 - - - 0;
#X listbox 362 296 20 0 0 0 - - - 0;
#X listbox 511 296 20 0 0 0 - - - 0;
#X floatatom 660 277 7 0 0 0 - - - 0;
#X obj 64 274 symbol;
#X obj 213 274 symbol;
#X obj 362 274 symbol;
#X obj 511 274 symbol;
#X obj 273 72 symbol;
#X obj 273 97 list fromsymbol;
#X msg 273 44 pastropfacile;
#X obj 273 122 list prepend 10 2;
#X obj 409 73 symbol;
#X obj 409 98 list fromsymbol;
#X obj 541 73 symbol;
#X obj 541 98 list fromsymbol;
#X msg 541 45 pastropfacile;
#X msg 409 45 Livebox-80E0;
#X obj 409 123 list prepend 10 3;
#X obj 541 123 list prepend 10 4;
#X msg 679 60 4242;
#X obj 679 122 list prepend 10 5 int16;
#X obj 1066 82 symbol;
#X obj 1066 107 list fromsymbol;
#X msg 1066 55 EEPROM_SAVE;
#X obj 1066 132 list prepend 10 255;
#X obj 863 72 symbol;
#X obj 863 97 list fromsymbol;
#X obj 863 122 list prepend 10 6;
#X listbox 808 299 20 0 0 0 - - - 0;
#X obj 808 277 symbol;
#X obj 64 251 route ap_ssid ap_password sta_ssid sta_password tcp_port hostname, f 128;
#X msg 40 15 1 \, 2 \, 3 \, 4 \, 5 \, 6;
#X obj 141 157 fruit/send2 \$1;
#X obj 64 226 fruit/receive \$1;
#X msg 141 44 FeuAP;
#X msg 863 44 feu;
#X connect 0 0 1 0;
#X connect 1 0 2 0;
#X connect 2 0 38 0;
#X connect 4 0 38 0;
#X connect 9 0 3 0;
#X connect 10 0 5 0;
#X connect 11 0 6 0;
#X connect 12 0 7 0;
#X connect 13 0 14 0;
#X connect 14 0 16 0;
#X connect 15 0 13 0;
#X connect 16 0 38 0;
#X connect 17 0 18 0;
#X connect 18 0 23 0;
#X connect 19 0 20 0;
#X connect 20 0 24 0;
#X connect 21 0 19 0;
#X connect 22 0 17 0;
#X connect 23 0 38 0;
#X connect 24 0 38 0;
#X connect 25 0 26 0;
#X connect 26 0 38 0;
#X connect 27 0 28 0;
#X connect 28 0 30 0;
#X connect 29 0 27 0;
#X connect 30 0 38 0;
#X connect 31 0 32 0;
#X connect 32 0 33 0;
#X connect 33 0 38 0;
#X connect 35 0 34 0;
#X connect 36 0 9 0;
#X connect 36 1 10 0;
#X connect 36 2 11 0;
#X connect 36 3 12 0;
#X connect 36 4 8 0;
#X connect 36 5 35 0;
#X connect 37 0 4 0;
#X connect 39 0 36 0;
#X connect 40 0 0 0;
#X connect 41 0 31 0;
#X restore 586 76 pd settings;
#N canvas 891 184 804 567 tcp_connect 0;
#X msg 213 62 T;
#X msg 253 63 t, f 2;
#X obj 306 192 tgl 20 0 empty empty empty 0 -10 0 12 #fcfcfc #000000 #000000 0 1;
#X msg 329 104 disconnect \, connect 192.168.1.116 4242;
#X msg 333 135 disconnect;
#X obj 474 390 print from_tcp;
#X obj 306 167 netsend -b;
#X msg 169 76 I\$1;
#X obj 169 41 tgl 20 0 empty empty empty 0 -10 0 12 #fcfcfc #000000 #000000 0 1;
#X obj 374 333 fudiparse;
#X obj 373 195 sel 10;
#X obj 419 299 t a;
#X obj 375 301 list;
#X obj 406 265 list prepend;
#X text 454 301 get line;
#X obj 373 223 t a b b;
#X obj 373 363 route sEcho;
#X obj 373 391 bng 20 250 50 0 empty empty empty 0 -10 0 12 #fcfcfc #000000 #000000;
#X listbox 424 443 24 0 0 0 - - - 0;
#X obj 424 413 list;
#X obj 424 467 bng 20 250 50 0 empty empty empty 0 -10 0 12 #fcfcfc #000000 #000000;
#X msg 306 25 80EHello;
#X obj 306 50 fudiformat -u;
#X obj 306 78 list append 10;
#X obj 448 25 r Fraise-to-pied-1;
#X obj 525 247 s Fraise-from-pied-1;
#X obj 673 438 r Fr2;
#X obj 643 102 tgl 15 0 empty empty empty 17 7 0 10 #fcfcfc #000000 #000000 0 1;
#X obj 673 489 route actif;
#X obj 673 463 route 1;
#X obj 643 122 == 0;
#X obj 525 212 spigot 1;
#X obj 448 49 spigot 1;
#X obj 448 74 spigot;
#X msg 667 188 #EsEcho;
#X obj 667 161 metro 1000;
#X obj 150 379 s Fr2;
#X msg 150 351 1 actif \$1;
#X obj 60 236 bng 20 250 50 0 empty empty empty 0 -10 0 12 #fcfcfc #000000 #000000;
#X obj 117 267 sel 1 0, f 10;
#X msg 150 322 0;
#X obj 140 436 s Fraise-forceactif-pied-1;
#X obj 197 125 r TCP-connect;
#X obj 197 150 route stop;
#X msg 95 187 disconnect \, connect \$1 \$2;
#X obj 95 163 list;
#X msg 710 116 0;
#X msg 117 292 #i \, #V \, #R \, whoami;
#X msg 259 317 #i \, #V \, #R;
#X msg 302 290 #V;
#X obj 599 40 r Fraise-pied-1-comport_on;
#X obj 599 65 tgl 20 0 empty empty empty 0 -10 0 12 #fcfcfc #000000 #000000 0 1;
#X obj 25 109 fruit/send2 \$1;
#X connect 0 0 52 1;
#X connect 1 0 52 1;
#X connect 2 0 33 1;
#X connect 2 0 39 0;
#X connect 3 0 6 0;
#X connect 4 0 6 0;
#X connect 6 0 2 0;
#X connect 6 1 10 0;
#X connect 6 1 31 0;
#X connect 7 0 52 1;
#X connect 8 0 7 0;
#X connect 9 0 16 0;
#X connect 10 0 15 0;
#X connect 10 1 13 0;
#X connect 11 0 13 1;
#X connect 12 0 9 0;
#X connect 13 0 11 0;
#X connect 13 0 12 1;
#X connect 15 0 12 1;
#X connect 15 1 12 0;
#X connect 15 2 13 1;
#X connect 16 0 17 0;
#X connect 16 1 19 0;
#X connect 18 0 20 0;
#X connect 19 0 18 0;
#X connect 21 0 22 0;
#X connect 22 0 23 0;
#X connect 23 0 6 0;
#X connect 24 0 32 0;
#X connect 26 0 29 0;
#X connect 27 0 30 0;
#X connect 29 0 28 0;
#X connect 30 0 31 1;
#X connect 30 0 32 1;
#X connect 31 0 25 0;
#X connect 32 0 33 0;
#X connect 33 0 6 0;
#X connect 34 0 22 0;
#X connect 35 0 34 0;
#X connect 37 0 36 0;
#X connect 39 0 47 0;
#X connect 39 1 40 0;
#X connect 40 0 37 0;
#X connect 42 0 43 0;
#X connect 43 0 4 0;
#X connect 43 1 45 0;
#X connect 44 0 6 0;
#X connect 45 0 44 0;
#X connect 46 0 35 0;
#X connect 47 0 22 0;
#X connect 48 0 22 0;
#X connect 49 0 22 0;
#X connect 50 0 51 0;
#X connect 51 0 27 0;
#X restore 476 75 pd tcp_connect;
#N canvas 0 0 794 382 test_speed 0;
#X obj 242 274 list fromsymbol;
#X obj 242 247 symbol;
#X obj 242 299 list length;
#X floatatom 242 324 5 0 0 0 - - - 0;
#X msg 267 66 E1234567890123456789012345678901234567890123456789012345678901234567890123456789012345678901234567890;
#X obj 180 122 tgl 20 0 empty empty empty 0 -10 0 12 #fcfcfc #000000 #000000 0 1;
#X obj 180 181 i;
#X obj 212 180 + 1;
#X obj 243 178 mod 100;
#X msg 180 214 E12345678901234567890123456789012345678901234567890123456-\$1;
#X msg 267 140 0;
#X obj 180 148 metro 2;
#X obj 36 354 fruit/send2 \$1;
#X connect 0 0 2 0;
#X connect 1 0 0 0;
#X connect 2 0 3 0;
#X connect 5 0 11 0;
#X connect 6 0 9 0;
#X connect 6 0 7 0;
#X connect 7 0 8 0;
#X connect 8 0 6 1;
#X connect 9 0 1 0;
#X connect 9 0 12 1;
#X connect 10 0 6 1;
#X connect 11 0 6 0;
#X restore 487 257 pd test_speed;
#X obj 35 195 fruit/send2 \$1;
#X obj 491 120 fruit/receive \$1;
#X obj 327 59 s TCP-connect;
#X msg 278 22 stop;
#X msg 406 23 192.168.4.1 4242;
#X msg 327 23 feu 4242;
#X connect 0 0 28 1;
#X connect 1 0 28 1;
#X connect 2 0 28 1;
#X connect 3 0 2 0;
#X connect 4 0 5 0;
#X connect 5 0 28 1;
#X connect 6 0 13 0;
#X connect 9 0 13 0;
#X connect 11 0 13 0;
#X connect 13 0 28 1;
#X connect 14 0 18 0;
#X connect 15 0 13 0;
#X connect 17 0 14 0;
#X connect 19 0 14 1;
#X connect 20 0 21 0;
#X connect 21 0 22 0;
#X connect 24 0 23 0;
#X connect 29 0 20 0;
#X connect 31 0 30 0;
#X connect 32 0 30 0;
#X connect 33 0 30 0;
